<?xml version="1.0" encoding="UTF-8"?>
<svg width="26px" height="26px" viewBox="0 0 26 26" version="1.1" xmlns="http://www.w3.org/2000/svg" xmlns:xlink="http://www.w3.org/1999/xlink">
    <title>iMUSX</title>
    <defs>
        <path d="M10.5625,20.3125 C7.62180131,20.3125 4.98519861,19.0106562 3.19757023,16.9518469 C1.71180291,15.2406906 0.8125,13.0066288 0.8125,10.5625 C0.8125,5.1776725 5.1776725,0.8125 10.5625,0.8125 C15.9473275,0.8125 20.3125,5.1776725 20.3125,10.5625 C20.3125,15.9473275 15.9473275,20.3125 10.5625,20.3125 Z" id="path-1"></path>
        <path d="M10.5625,21.125 C7.37674309,21.125 4.5204235,19.7146692 2.58382608,17.4842925 C0.974244814,15.6305398 0,13.2103062 0,10.5625 C0,4.72893687 4.72893688,0 10.5625,0 C16.3960631,0 21.125,4.72893687 21.125,10.5625 C21.125,16.3960631 16.3960631,21.125 10.5625,21.125 Z" id="path-3"></path>
    </defs>
    <g id="Page-1" stroke="none" stroke-width="1" fill="none" fill-rule="evenodd">
        <g id="2442" transform="translate(-513.000000, -6724.000000)">
            <g id="iMUSX" transform="translate(513.000000, 6724.000000)">
                <g id="DF备份-26"></g>
                <path d="M13,26 C9.07906842,26 5.56359815,24.2642083 3.18009363,21.5191292 C1.19907054,19.2375875 0,16.2588384 0,13 C0,5.82023 5.82023,0 13,0 C20.17977,0 26,5.82023 26,13 C26,20.17977 20.17977,26 13,26 Z" id="Fill-504备份-21" fill="#242A47"></path>
                <g id="ETH备份-22" transform="translate(2.437500, 2.437500)">
                    <mask id="mask-2" fill="white">
                        <use xlink:href="#path-1"></use>
                    </mask>
                    <path stroke="#FFFFFF" stroke-width="1.21875" d="M10.5625,0.203125 C13.4231896,0.203125 16.0130325,1.36262545 17.8877035,3.2372965 C19.7623746,5.11196754 20.921875,7.70181039 20.921875,10.5625 C20.921875,13.4231896 19.7623746,16.0130325 17.8877035,17.8877035 C16.0130325,19.7623745 13.4231896,20.921875 10.5625,20.921875 C7.43811115,20.921875 4.63675228,19.5388047 2.73744039,17.3513696 C1.15876877,15.5332156 0.203125,13.159486 0.203125,10.5625 C0.203125,7.70181038 1.36262546,5.11196752 3.23729651,3.23729648 C5.11196755,1.36262545 7.70181041,0.203125 10.5625,0.203125 Z"></path>
                    <mask id="mask-4" fill="white">
                        <use xlink:href="#path-3"></use>
                    </mask>
                    <use id="蒙版备份" fill="#FFFFFF" xlink:href="#path-3"></use>
                </g>
                <path d="M13.820207,19.5 L12.4634739,19.5 L12.4634739,17.9953707 C11.5260945,17.8870373 10.4777016,17.4777781 9.75,16.8277787 L10.6380433,15.5037046 C11.390414,16.0814823 12.1181156,16.4185196 12.9074946,16.4185196 C13.8695411,16.4185196 14.3135637,15.9972239 14.3135637,15.238891 C14.3135637,13.4333361 10.132357,13.5898162 10.132357,10.7851823 C10.132357,9.32870145 11.0204003,8.31759528 12.4634759,8.05277779 L12.4634759,6.5 L13.8202089,6.5 L13.8202089,8.0287026 C14.8069244,8.16111 15.509959,8.64259212 16.1019898,9.24444308 L15.0906073,10.3759252 C14.5232455,9.87036923 14.0298887,9.58148039 13.3268542,9.58148039 C12.5128139,9.58148039 12.0687932,9.9546276 12.0687932,10.6888873 C12.0687932,12.3499987 16.25,12.0972197 16.25,15.0944456 C16.2376661,16.5629631 15.3989592,17.6583334 13.820205,17.9472165 L13.820207,19.5 Z" id="路径" fill="#242A47" fill-rule="nonzero"></path>
            </g>
        </g>
    </g>
</svg>