<?xml version="1.0" encoding="UTF-8"?>
<svg width="26px" height="26px" viewBox="0 0 26 26" version="1.1" xmlns="http://www.w3.org/2000/svg" xmlns:xlink="http://www.w3.org/1999/xlink">
    <title>qATOM</title>
    <defs>
        <path d="M10.5625,20.3125 C7.62180131,20.3125 4.98519861,19.0106562 3.19757023,16.9518469 C1.71180291,15.2406906 0.8125,13.0066288 0.8125,10.5625 C0.8125,5.1776725 5.1776725,0.8125 10.5625,0.8125 C15.9473275,0.8125 20.3125,5.1776725 20.3125,10.5625 C20.3125,15.9473275 15.9473275,20.3125 10.5625,20.3125 Z" id="path-1"></path>
        <path d="M10.5625,21.125 C7.37674309,21.125 4.5204235,19.7146692 2.58382608,17.4842925 C0.974244814,15.6305398 0,13.2103062 0,10.5625 C0,4.72893687 4.72893688,0 10.5625,0 C16.3960631,0 21.125,4.72893687 21.125,10.5625 C21.125,16.3960631 16.3960631,21.125 10.5625,21.125 Z" id="path-3"></path>
    </defs>
    <g id="Page-1" stroke="none" stroke-width="1" fill="none" fill-rule="evenodd">
        <g id="2442" transform="translate(-390.000000, -6509.000000)">
            <g id="qATOM" transform="translate(390.000000, 6509.000000)">
                <g id="ATOM">
                    <g id="DF备份-26"></g>
                    <path d="M13,26 C9.07906842,26 5.56359815,24.2642083 3.18009363,21.5191292 C1.19907054,19.2375875 0,16.2588384 0,13 C0,5.82023 5.82023,0 13,0 C20.17977,0 26,5.82023 26,13 C26,20.17977 20.17977,26 13,26 Z" id="Fill-504备份-21" fill="#016DF0"></path>
                    <g id="ETH备份-22" transform="translate(2.437500, 2.437500)">
                        <mask id="mask-2" fill="white">
                            <use xlink:href="#path-1"></use>
                        </mask>
                        <path stroke="#FFFFFF" stroke-width="1.21875" d="M10.5625,0.203125 C13.4231896,0.203125 16.0130325,1.36262545 17.8877035,3.2372965 C19.7623746,5.11196754 20.921875,7.70181039 20.921875,10.5625 C20.921875,13.4231896 19.7623746,16.0130325 17.8877035,17.8877035 C16.0130325,19.7623745 13.4231896,20.921875 10.5625,20.921875 C7.43811115,20.921875 4.63675228,19.5388047 2.73744039,17.3513696 C1.15876877,15.5332156 0.203125,13.159486 0.203125,10.5625 C0.203125,7.70181038 1.36262546,5.11196752 3.23729651,3.23729648 C5.11196755,1.36262545 7.70181041,0.203125 10.5625,0.203125 Z"></path>
                        <mask id="mask-4" fill="white">
                            <use xlink:href="#path-3"></use>
                        </mask>
                        <use id="蒙版备份" fill="#FFFFFF" xlink:href="#path-3"></use>
                    </g>
                </g>
                <g id="ATOM" transform="translate(3.268720, 3.268720)">
                    <path d="M9.73128,0 C15.1057199,0 19.4626179,4.35684006 19.4626179,9.73128 C19.4626179,15.1057199 15.1057199,19.4626179 9.73128,19.4626179 C4.35684006,19.4626179 0,15.1057199 0,9.73128 C0,4.35684006 4.35684006,0 9.73128,0 Z" id="路径" fill="#2E3148"></path>
                    <path d="M9.71256076,4.11707004 C12.8132131,4.11707004 15.3267707,6.6306467 15.3267707,9.73128 C15.3267707,12.8319133 12.8132131,15.34549 9.71256076,15.34549 C6.61192746,15.34549 4.09836984,12.8319133 4.09836984,9.73128 C4.09836984,6.6306467 6.61192746,4.11707004 9.71256076,4.11707004 Z" id="路径" fill="#161931"></path>
                    <path d="M9.88413791,1.66447849 C9.80682346,1.59333776 9.76692844,1.59199143 9.76022531,1.59199143 C9.75352219,1.59199143 9.71362717,1.59333776 9.63633176,1.66447849 C9.55697971,1.73750446 9.46212668,1.86350227 9.35992307,2.05791574 C9.15591574,2.44595432 8.96066818,3.03247775 8.79238547,3.78928342 C8.45721018,5.29676291 8.24659494,7.39775461 8.24659494,9.73128 C8.24659494,12.0648054 8.45721018,14.1657971 8.79238547,15.6732575 C8.96066818,16.4300822 9.15591574,17.0166057 9.35992307,17.4046443 C9.46212668,17.5990539 9.55697971,17.7250612 9.63633176,17.798072 C9.71362717,17.8692165 9.75352219,17.8705686 9.76022531,17.8705686 C9.76692844,17.8705686 9.80682346,17.8692165 9.88413791,17.798072 C9.96348996,17.7250612 10.058343,17.5990539 10.1605466,17.4046443 C10.3645349,17.0166057 10.5597824,16.4300822 10.7280652,15.6732575 C11.0632595,14.1657971 11.2738747,12.0648054 11.2738747,9.73128 C11.2738747,7.39775461 11.0632595,5.29676291 10.7280652,3.78928342 C10.5597824,3.03247775 10.3645349,2.44595432 10.1605466,2.05791574 C10.058343,1.86350227 9.96348996,1.73750446 9.88413791,1.66447849 Z M11.6547341,9.73128 C11.6547341,5.02572434 10.8065222,1.21113205 9.76022531,1.21113205 C8.71392844,1.21113205 7.86573557,5.02572434 7.86573557,9.73128 C7.86573557,14.4368166 8.71392844,18.2514279 9.76022531,18.2514279 C10.8065222,18.2514279 11.6547341,14.4368166 11.6547341,9.73128 Z" id="形状" fill="#6F7390"></path>
                    <path d="M16.8126364,5.8048674 C16.8356213,5.70243527 16.8168259,5.66739621 16.8135696,5.66177854 C16.8102942,5.65610373 16.7892517,5.62224533 16.6888762,5.59088156 C16.5858537,5.55869895 16.4291872,5.53959885 16.2095837,5.54833957 C15.7712527,5.56580197 15.1653054,5.69009543 14.4252956,5.92285764 C12.9513318,6.3864968 11.0253449,7.25472287 9.00317209,8.42148557 C6.98101828,9.58824826 5.2656467,10.8210329 4.12691525,11.8648923 C3.55520725,12.3889548 3.14456467,12.8512229 2.91027902,13.221799 C2.79291721,13.407468 2.7311799,13.5525564 2.70758566,13.6576926 C2.6846008,13.7600866 2.70337717,13.7951447 2.70665256,13.8007815 C2.70990891,13.8064563 2.73097043,13.8403147 2.83134592,13.8716784 C2.93434934,13.9038611 3.09101584,13.9229612 3.3106384,13.9142204 C3.74896945,13.896739 4.35491672,13.7724646 5.09490744,13.5396833 C6.56887131,13.0760632 8.49487717,12.2078371 10.517031,11.0410744 C12.5392038,9.87431174 14.2545754,8.64152707 15.3933069,7.5976677 C15.9650149,7.0736052 16.3756574,6.61133713 16.609924,6.24076096 C16.7273049,6.05509201 16.7890422,5.91000363 16.8126364,5.8048674 Z M2.37686643,13.9913064 C2.90003391,14.8968757 6.62973264,13.7237146 10.7073654,11.3709558 C14.7850173,9.01821604 17.6665041,6.37682297 17.1433557,5.47125363 C16.6201882,4.5656843 12.8904895,5.73884543 8.81283762,8.09160422 C4.73518576,10.444344 1.85371037,13.085737 2.37686643,13.9913064 Z" id="形状" fill="#6F7390"></path>
                    <path d="M17.1433557,13.9913064 C17.6665041,13.085737 14.7850173,10.444344 10.7073654,8.09160422 C6.62973264,5.73884543 2.90003391,4.5656843 2.37686643,5.47125363 C1.85371037,6.37682297 4.73518576,9.01821604 8.81283762,11.3709558 C12.8904895,13.7237146 16.6201882,14.8968757 17.1433557,13.9913064 Z M2.70665256,5.66177854 C2.70992795,5.65608469 2.73100852,5.62222629 2.83134592,5.59088156 C2.93434934,5.55869895 3.09101584,5.53959885 3.3106384,5.54833957 C3.74896945,5.56580197 4.35491672,5.69009543 5.09490744,5.92285764 C6.56887131,6.3864968 8.49487717,7.25472287 10.517031,8.42148557 C12.5392038,9.58824826 14.2545754,10.8210329 15.3933069,11.8648923 C15.9650149,12.3889548 16.3756574,12.8512229 16.609924,13.221799 C16.7273049,13.407468 16.7890422,13.5525564 16.8126364,13.6576926 C16.8356213,13.7601247 16.8168259,13.7951638 16.8135696,13.8007815 C16.8102942,13.8064563 16.7892517,13.8403147 16.6888762,13.8716784 C16.5858537,13.9038611 16.4291872,13.9229612 16.2095837,13.9142204 C15.7712527,13.896739 15.1653054,13.7724646 14.4252956,13.5396833 C12.9513318,13.0760632 11.0253449,12.2078371 9.00319113,11.0410744 C6.98101828,9.87431174 5.2656467,8.64152707 4.12691525,7.5976677 C3.55520725,7.0736052 3.14456467,6.61133713 2.91027902,6.24076096 C2.79291721,6.05509201 2.7311799,5.91000363 2.70758566,5.8048674 C2.6846008,5.70247336 2.70337717,5.66741525 2.70665256,5.66177854" id="形状" fill="#6F7390"></path>
                    <path d="M4.31445041,7.34525314 C4.64534104,7.34525314 4.91359934,7.6136257 4.91359934,7.94466867 C4.91359934,8.27573068 4.64534104,8.54410324 4.31445041,8.54410324 C3.98355979,8.54410324 3.71530148,8.27573068 3.71530148,7.94466867 C3.71530148,7.6136257 3.98355979,7.34525314 4.31445041,7.34525314 Z" id="路径" fill="#B7B9C8"></path>
                    <path d="M13.8366775,5.29255441 C14.1677204,5.29255441 14.436112,5.56092697 14.436112,5.89198898 C14.436112,6.223051 14.1677204,6.49142355 13.8366775,6.49142355 C13.5056154,6.49142355 13.2372429,6.223051 13.2372429,5.89198898 C13.2372429,5.56092697 13.5056154,5.29255441 13.8366775,5.29255441 Z" id="路径" fill="#B7B9C8"></path>
                    <path d="M8.55288205,14.7010188 C8.88394406,14.7010188 9.15231662,14.969258 9.15231662,15.3001677 C9.15231662,15.6310583 8.88394406,15.8992976 8.55288205,15.8992976 C8.22182004,15.8992976 7.95344748,15.6310583 7.95344748,15.3001677 C7.95344748,14.969258 8.22182004,14.7010188 8.55288205,14.7010188 Z" id="路径" fill="#B7B9C8"></path>
                    <path d="M9.72684299,8.71196701 C10.2873347,8.71196701 10.7416999,9.16635129 10.7416999,9.72684299 C10.7416999,10.2873347 10.2873347,10.7416999 9.72684299,10.7416999 C9.16635129,10.7416999 8.71196701,10.2873347 8.71196701,9.72684299 C8.71196701,9.16635129 9.16635129,8.71196701 9.72684299,8.71196701 Z" id="路径" fill="#B7B9C8"></path>
                </g>
            </g>
        </g>
    </g>
</svg>