<?xml version="1.0" encoding="UTF-8"?>
<svg width="27px" height="27px" viewBox="0 0 27 27" version="1.1" xmlns="http://www.w3.org/2000/svg" xmlns:xlink="http://www.w3.org/1999/xlink">
    <title>qrATOM</title>
    <defs>
        <path d="M10.5625,20.3125 C7.62180131,20.3125 4.98519861,19.0106562 3.19757023,16.9518469 C1.71180291,15.2406906 0.8125,13.0066288 0.8125,10.5625 C0.8125,5.1776725 5.1776725,0.8125 10.5625,0.8125 C15.9473275,0.8125 20.3125,5.1776725 20.3125,10.5625 C20.3125,15.9473275 15.9473275,20.3125 10.5625,20.3125 Z" id="path-1"></path>
        <path d="M10.5625,21.125 C7.37674309,21.125 4.5204235,19.7146692 2.58382608,17.4842925 C0.974244814,15.6305398 0,13.2103062 0,10.5625 C0,4.72893687 4.72893688,0 10.5625,0 C16.3960631,0 21.125,4.72893687 21.125,10.5625 C21.125,16.3960631 16.3960631,21.125 10.5625,21.125 Z" id="path-3"></path>
    </defs>
    <g id="Page-1" stroke="none" stroke-width="1" fill="none" fill-rule="evenodd">
        <g id="2442" transform="translate(-390.000000, -6543.000000)">
            <g id="qrATOM" transform="translate(390.000000, 6543.000000)">
                <g id="ATOM">
                    <g id="DF备份-26"></g>
                    <path d="M13,26 C9.07906842,26 5.56359815,24.2642083 3.18009363,21.5191292 C1.19907054,19.2375875 0,16.2588384 0,13 C0,5.82023 5.82023,0 13,0 C20.17977,0 26,5.82023 26,13 C26,20.17977 20.17977,26 13,26 Z" id="Fill-504备份-21" fill="#016DF0"></path>
                    <g id="ETH备份-22" transform="translate(2.437500, 2.437500)">
                        <mask id="mask-2" fill="white">
                            <use xlink:href="#path-1"></use>
                        </mask>
                        <path stroke="#FFFFFF" stroke-width="1.21875" d="M10.5625,0.203125 C13.4231896,0.203125 16.0130325,1.36262545 17.8877035,3.2372965 C19.7623746,5.11196754 20.921875,7.70181039 20.921875,10.5625 C20.921875,13.4231896 19.7623746,16.0130325 17.8877035,17.8877035 C16.0130325,19.7623745 13.4231896,20.921875 10.5625,20.921875 C7.43811115,20.921875 4.63675228,19.5388047 2.73744039,17.3513696 C1.15876877,15.5332156 0.203125,13.159486 0.203125,10.5625 C0.203125,7.70181038 1.36262546,5.11196752 3.23729651,3.23729648 C5.11196755,1.36262545 7.70181041,0.203125 10.5625,0.203125 Z"></path>
                        <mask id="mask-4" fill="white">
                            <use xlink:href="#path-3"></use>
                        </mask>
                        <use id="蒙版备份" fill="#FFFFFF" xlink:href="#path-3"></use>
                    </g>
                </g>
                <g id="ATOM" transform="translate(3.268720, 3.268720)">
                    <path d="M9.73128,0 C15.1057199,0 19.4626179,4.35684006 19.4626179,9.73128 C19.4626179,15.1057199 15.1057199,19.4626179 9.73128,19.4626179 C4.35684006,19.4626179 0,15.1057199 0,9.73128 C0,4.35684006 4.35684006,0 9.73128,0 Z" id="路径" fill="#00F3AB"></path>
                    <g id="编组-11" transform="translate(1.000000, 1.000000)">
                        <ellipse id="Oval-6" stroke="#23292F" stroke-width="0.5" cx="8.46814863" cy="8.99137523" rx="5.82133375" ry="5.86419753"></ellipse>
                        <path d="M8.39940429,17.3288729 C8.9910733,17.0632456 9.41728961,16.1512037 9.65256443,14.5837464 C9.69989772,14.2684008 9.74920233,13.9741871 9.8232616,13.5552031 C9.83353997,13.4970538 9.88901805,13.1848132 9.90466119,13.0960776 C10.1082374,11.9412914 10.2027237,11.211376 10.2511832,10.2054513 C10.3128505,8.92535773 10.2713596,7.38770936 10.1054232,5.37769511 C9.81407651,1.8485653 9.23501146,0.0546769441 8.45615806,0.000854277117 C7.65985761,0.523914139 7.15634167,1.72830961 6.96101895,3.62109036 C6.76059174,5.5633363 6.68294501,6.57003602 6.66229012,7.81580268 C6.63668702,9.36001524 6.72619686,11.0022912 6.96085908,13.0488927 C7.27795521,15.8144394 7.78386074,17.2445161 8.39940429,17.3288729 Z" id="Rectangle" stroke="#23292F" stroke-width="0.5"></path>
                        <path d="M8.39946129,17.3304022 C8.99102764,17.0647854 9.41711266,16.1526517 9.65223034,14.584997 C9.69953202,14.2696118 9.74880643,13.9753614 9.82282215,13.5563256 C9.83309448,13.4981691 9.88854006,13.1858899 9.90417399,13.0971433 C10.1076303,11.9422141 10.2020455,11.2122057 10.2504183,10.2061462 C10.3119751,8.9258811 10.2703676,7.38801752 10.1042942,5.37771306 C9.81270685,1.8480737 9.23357884,0.0538920456 8.45482848,0 C7.65867938,0.523068599 7.15532864,1.72759 6.96018344,3.62061607 C6.7599384,5.56311373 6.68238247,6.56994602 6.66182955,7.81588273 C6.63635285,9.36030607 6.72598102,11.0028155 6.96077376,13.0497177 C7.27804625,15.8156708 7.78399585,17.2459848 8.39946129,17.3304022 Z" id="Rectangle-Copy" stroke="#23292F" stroke-width="0.5" transform="translate(8.467533, 8.665201) rotate(-60.000000) translate(-8.467533, -8.665201) "></path>
                        <path d="M8.39933561,17.3304533 C8.99094423,17.0647424 9.41717438,16.1525408 9.65254151,14.5848488 C9.69989337,14.269456 9.74921459,13.9751978 9.82329699,13.5561501 C9.83357858,13.497992 9.88907385,13.185704 9.9047219,13.0969549 C10.1083619,11.9419934 10.2028933,11.2119699 10.2514262,10.2059027 C10.3131868,8.92562777 10.2718239,7.38777079 10.1060704,5.37749273 C9.81504465,1.84789973 9.23620212,0.0538102103 8.45746032,4.20865363e-05 C7.66122798,0.523237383 7.15768559,1.7278389 6.96223917,3.62089604 C6.76168505,5.5634256 6.68396892,6.57027024 6.66321775,7.81621023 C6.6374953,9.36063764 6.72686213,11.0031328 6.96132918,13.0499977 C7.27816156,15.8159003 7.78388359,17.2461339 8.39933561,17.3304533 Z" id="Rectangle-Copy-2" stroke="#23292F" stroke-width="0.5" transform="translate(8.468784, 8.665248) rotate(60.000000) translate(-8.468784, -8.665248) "></path>
                        <ellipse id="Oval-7" fill="#23292F" fill-rule="nonzero" cx="8.79155606" cy="9.31716398" rx="1" ry="1"></ellipse>
                        <ellipse id="Oval-7-Copy" fill="#23292F" fill-rule="nonzero" cx="2.64681486" cy="7.03664272" rx="1" ry="1"></ellipse>
                        <ellipse id="Oval-7-Copy-2" fill="#23292F" fill-rule="nonzero" cx="7.17451887" cy="14.2039953" rx="1" ry="1"></ellipse>
                        <ellipse id="Oval-7-Copy-3" fill="#23292F" fill-rule="nonzero" cx="12.3490378" cy="4.43033271" rx="1" ry="1"></ellipse>
                    </g>
                    <path d="M3.02441187,7.17627268 L3.02441187,4.1377793 C3.04350466,3.15334039 3.5399097,2.66112832 4.51364188,2.66112832 L5.94559382,2.66112832 L5.94559382,3.31426241 L4.82867131,3.31426241 C4.31316604,3.31426241 4.04587101,3.56983406 4.02677823,4.08098503 L4.02677823,7.17627268 L3.02441187,7.17627268 Z" id="r" fill="#FFFFFF" fill-rule="nonzero"></path>
                </g>
                <g id="Group-2-Copy-54" transform="translate(18.000000, 18.000000)" fill-rule="nonzero">
                    <ellipse id="Oval-5-Copy-2" stroke="#23292F" stroke-width="0.571428571" fill="#FFFFFF" cx="3.90802825" cy="3.90946502" rx="3.90802825" ry="3.90946502"></ellipse>
                    <path d="M5.28564499,4.37598949 C5.13776649,4.36872466 4.97177659,4.33339677 4.7876753,4.27000583 C4.7831511,4.26720179 4.77860918,4.2644252 4.77404954,4.26167607 L5.21680933,1.72476398 L5.82732991,1.75412957 L5.28564499,4.37598949 Z M5.19809929,4.79972761 L5.05681727,5.48355996 L4.45801354,5.48355996 L4.17947036,4.59906214 C4.3340059,4.60875936 4.48191965,4.62871685 4.62321158,4.65893462 L4.72760482,4.98457429 L4.73362277,4.6849846 C4.75175493,4.68967292 4.76977244,4.69453889 4.7876753,4.69958251 C4.92448329,4.75257746 5.0612913,4.78595915 5.19809929,4.79972761 Z M4.01238206,4.05595623 L3.92142318,3.72277144 L3.83274905,4.05881167 C3.69536674,4.06698117 3.56697259,4.08907753 3.44756657,4.12510072 L3.77885087,3.00010253 L4.09769441,3.00010253 L4.45250304,4.12158488 C4.31721976,4.08200798 4.17051277,4.06013176 4.01238206,4.05595623 Z M3.67425209,4.60322293 L3.41075507,5.48355996 L2.83268913,5.48355996 L2.69776699,4.8056639 C2.85349442,4.79862213 2.99564806,4.76326179 3.12422792,4.69958251 C3.14570899,4.69353083 3.16735514,4.6877349 3.18916635,4.68219474 L3.20596938,4.98457429 L3.29598167,4.65738586 C3.41721256,4.63180228 3.54330269,4.61374797 3.67425209,4.60322293 Z M2.61247026,4.3771032 L2.0845733,1.72476398 L2.61546076,1.72476398 L3.15935958,4.24898896 C3.14753266,4.25581428 3.1358221,4.2628199 3.12422792,4.27000583 C2.96844863,4.34160194 2.80672457,4.3774 2.63905576,4.3774 C2.63024135,4.3774 2.62137951,4.37730107 2.61247026,4.3771032 Z" id="Combined-Shape-Copy" fill="#23292F"></path>
                </g>
            </g>
        </g>
    </g>
</svg>