<?xml version="1.0" encoding="UTF-8"?>
<svg width="26px" height="26px" viewBox="0 0 26 26" version="1.1" xmlns="http://www.w3.org/2000/svg" xmlns:xlink="http://www.w3.org/1999/xlink">
    <title>qrDOT</title>
    <defs>
        <path d="M10.5625,20.3125 C7.62180131,20.3125 4.98519861,19.0106562 3.19757023,16.9518469 C1.71180291,15.2406906 0.8125,13.0066288 0.8125,10.5625 C0.8125,5.1776725 5.1776725,0.8125 10.5625,0.8125 C15.9473275,0.8125 20.3125,5.1776725 20.3125,10.5625 C20.3125,15.9473275 15.9473275,20.3125 10.5625,20.3125 Z" id="path-1"></path>
        <path d="M10.5625,21.125 C7.37674309,21.125 4.5204235,19.7146692 2.58382608,17.4842925 C0.974244814,15.6305398 0,13.2103062 0,10.5625 C0,4.72893687 4.72893688,0 10.5625,0 C16.3960631,0 21.125,4.72893687 21.125,10.5625 C21.125,16.3960631 16.3960631,21.125 10.5625,21.125 Z" id="path-3"></path>
    </defs>
    <g id="Page-1" stroke="none" stroke-width="1" fill="none" fill-rule="evenodd">
        <g id="2442" transform="translate(-390.000000, -6632.000000)">
            <g id="qrDOT" transform="translate(390.000000, 6632.000000)">
                <g id="ATOM">
                    <g id="DF备份-26"></g>
                    <path d="M13,26 C9.07906842,26 5.56359815,24.2642083 3.18009363,21.5191292 C1.19907054,19.2375875 0,16.2588384 0,13 C0,5.82023 5.82023,0 13,0 C20.17977,0 26,5.82023 26,13 C26,20.17977 20.17977,26 13,26 Z" id="Fill-504备份-21" fill="#016DF0"></path>
                    <g id="ETH备份-22" transform="translate(2.437500, 2.437500)">
                        <mask id="mask-2" fill="white">
                            <use xlink:href="#path-1"></use>
                        </mask>
                        <path stroke="#FFFFFF" stroke-width="1.21875" d="M10.5625,0.203125 C13.4231896,0.203125 16.0130325,1.36262545 17.8877035,3.2372965 C19.7623746,5.11196754 20.921875,7.70181039 20.921875,10.5625 C20.921875,13.4231896 19.7623746,16.0130325 17.8877035,17.8877035 C16.0130325,19.7623745 13.4231896,20.921875 10.5625,20.921875 C7.43811115,20.921875 4.63675228,19.5388047 2.73744039,17.3513696 C1.15876877,15.5332156 0.203125,13.159486 0.203125,10.5625 C0.203125,7.70181038 1.36262546,5.11196752 3.23729651,3.23729648 C5.11196755,1.36262545 7.70181041,0.203125 10.5625,0.203125 Z"></path>
                        <mask id="mask-4" fill="white">
                            <use xlink:href="#path-3"></use>
                        </mask>
                        <use id="蒙版备份" fill="#FFFFFF" xlink:href="#path-3"></use>
                    </g>
                </g>
                <g id="rDOT" transform="translate(3.000000, 3.000000)">
                    <ellipse id="Oval-5-Copy-2" fill="#00F3AB" fill-rule="nonzero" cx="9.98859749" cy="10" rx="9.98859749" ry="10"></ellipse>
                    <g id="DOT备份">
                        <path d="M10,20 C4.5,20 0,15.5000929 0,9.95020737 C0.05,4.45032085 4.5,-0.0495862982 10.05,0.000412670161 C15.55,0.0504116385 20,4.50031982 20,10.1002043 C19.95,15.5500918 15.5,20 10,20" id="路径" fill="#00F3AB"></path>
                        <path d="M10.2469713,3.81235428 C10.2622404,3.81514696 10.2774196,3.81973863 10.292788,3.82047801 C11.6091206,3.88356057 12.8472446,4.50330021 13.6940187,5.50359323 C14.2052798,6.10754693 14.5451622,6.79619938 14.7148764,7.56763857 C14.8036536,7.9711927 14.8395589,8.38016737 14.8193057,8.79265996 C14.769829,9.80030436 14.4372147,10.7067671 13.8150743,11.5026528 C13.1803271,12.3146542 12.3630318,12.8653633 11.3710998,13.1566874 C11.0970698,13.2371618 10.8173085,13.2903217 10.5332299,13.3191197 C10.396962,13.3329324 10.2598713,13.3385413 10.1233292,13.3499522 C9.93989689,13.3652766 9.75593974,13.374719 9.57635193,13.4221758 C8.96796266,13.5829503 8.48930617,14.0748342 8.35507637,14.6863135 C8.28045224,15.0262529 8.20735549,15.3666774 8.14346086,15.7087172 C8.11879106,15.8407644 8.07035465,15.9550288 7.97771406,16.049024 C7.8166487,16.2124452 7.62034482,16.2678043 7.39425939,16.2299171 C7.31920495,16.2173383 7.24682697,16.2014017 7.17918245,16.1653464 C6.93174679,16.0334405 6.80130471,15.7552368 6.8594492,15.4816859 C7.03122987,14.6735039 7.20186618,13.865077 7.37490942,13.0571587 C7.52956262,12.3350977 7.68684499,11.6136018 7.84291681,10.8918516 C7.97977578,10.258968 8.11655437,9.62606558 8.25341335,8.99318197 C8.29118646,8.81849108 8.32846306,8.64368716 8.36715355,8.46919878 C8.43937548,8.14351476 8.73780579,7.92682063 9.07177726,7.95659824 C9.39081538,7.98504779 9.64735385,8.25306507 9.66240541,8.57157195 C9.66669437,8.6622705 9.64847929,8.74928158 9.62896381,8.83662702 C9.43717115,9.69499252 9.24430506,10.5531225 9.05476801,11.4119825 C9.00546151,11.6354111 8.96678048,11.8611709 8.9229735,12.0858098 C8.91878857,12.1072752 8.91264595,12.128364 8.90775171,12.1497023 C8.89916906,12.1871186 8.92479879,12.2127613 8.9615836,12.2011338 C9.15644048,12.1395394 9.35759131,12.114005 9.56017494,12.0980118 C9.85689818,12.0745778 10.1540706,12.0564466 10.4505527,12.0303564 C10.9386478,11.9874113 11.3994958,11.8500425 11.8251338,11.6076491 C12.6593248,11.132592 13.2103356,10.4333669 13.4744968,9.5125829 C13.5797631,9.14567741 13.6159143,8.76992763 13.591183,8.38982637 C13.5180626,7.26607615 12.9216796,6.27365256 11.9627919,5.67676769 C11.5873968,5.44309143 11.1805934,5.28934329 10.7442543,5.21301786 C10.4588422,5.1630934 10.1716048,5.14621016 9.88294403,5.16946994 C9.09654163,5.23283506 8.40675196,5.52487506 7.82154294,6.05214071 C7.27220608,6.54708096 6.91962232,7.15859326 6.7615739,7.87948634 C6.69336666,8.19060416 6.67094774,8.50605463 6.68905878,8.82434959 C6.70610586,9.12392935 6.76744698,9.41410912 6.86601268,9.69738019 C6.97957792,10.0237471 6.82808825,10.3821097 6.51435103,10.5287042 C6.37085764,10.5957474 6.22022387,10.596289 6.07146267,10.5503346 C5.84574608,10.480607 5.69151847,10.3325008 5.61704566,10.1082716 C5.50290825,9.76464 5.4289887,9.41230071 5.39539105,9.05167285 C5.30365837,8.06718462 5.49508219,7.14017946 5.97789524,6.27693031 C6.46735216,5.40178518 7.16865629,4.74403117 8.06988178,4.29910957 C8.50029574,4.08662095 8.95444322,3.94639353 9.42874928,3.87176821 C9.60298888,3.84435002 9.77825935,3.82457991 9.95495317,3.82036028 C9.97356546,3.81991288 9.99206899,3.81512812 10.0106245,3.81235428 L10.2469713,3.81235428 Z" id="Fill-1" fill="#23292F"></path>
                        <path d="M11.1437791,15.6494858 C11.1437791,16.0885399 10.7878465,16.4444652 10.348788,16.4444652 C9.90972017,16.4444652 9.55378755,16.0885399 9.55378755,15.6494858 C9.55378755,15.2104364 9.90972017,14.8545111 10.348788,14.8545111 C10.7878465,14.8545111 11.1437791,15.2104364 11.1437791,15.6494858" id="Fill-3" fill="#E6007A"></path>
                    </g>
                    <path d="M3.14709236,7.23549489 L3.14709236,4.24968339 C3.1654259,3.28231284 3.64209071,2.79863482 4.57710108,2.79863482 L5.95210947,2.79863482 L5.95210947,3.44044476 L4.87960293,3.44044476 C4.38459743,3.44044476 4.12793177,3.69158528 4.10959823,4.19387383 L4.10959823,7.23549489 L3.14709236,7.23549489 Z" id="r" fill="#FFFFFF" fill-rule="nonzero"></path>
                </g>
                <g id="Group-2-Copy-54" transform="translate(17.000000, 17.000000)" fill-rule="nonzero">
                    <ellipse id="Oval-5-Copy-2" stroke="#23292F" stroke-width="0.571428571" fill="#FFFFFF" cx="4.32839225" cy="4.34802192" rx="4.32839225" ry="4.34802192"></ellipse>
                    <path d="M5.84754692,4.89382595 C5.68350991,4.8857653 5.4993825,4.84656744 5.29516467,4.77623236 C5.29014612,4.77312115 5.28510791,4.77004041 5.28005004,4.76699011 L5.77118966,1.95217311 L6.44842111,1.98475554 L5.84754692,4.89382595 Z M5.75043521,5.36398228 L5.59371546,6.12272475 L4.92948116,6.12272475 L4.6205019,5.141335 C4.79192336,5.15209449 4.95599946,5.17423822 5.1127302,5.20776619 L5.22853037,5.5690779 L5.23520589,5.2366698 C5.25531933,5.2418717 5.27530559,5.24727071 5.29516467,5.25286684 C5.44692151,5.31166708 5.59867836,5.34870556 5.75043521,5.36398228 Z M4.43515606,4.53873479 L4.33425822,4.16905142 L4.23589477,4.54190303 C4.08350087,4.55096746 3.94107723,4.57548434 3.80862385,4.61545368 L4.17610719,3.36721806 L4.52979039,3.36721806 L4.92336854,4.6115527 C4.77330302,4.56764036 4.61056552,4.54336773 4.43515606,4.53873479 Z M4.06007904,5.14595158 L3.76779,6.12272475 L3.12655948,6.12272475 L2.97689457,5.37056886 C3.14963814,5.36275571 3.30732474,5.32352182 3.44995437,5.25286684 C3.47378266,5.24615222 3.49779406,5.23972138 3.52198855,5.23357432 L3.54062762,5.5690779 L3.64047545,5.20604777 C3.77495309,5.17766164 3.91482095,5.15762958 4.06007904,5.14595158 Z M2.88227756,4.89506166 L2.29669793,1.95217311 L2.88559484,1.95217311 L3.48892482,4.75291321 C3.47580558,4.7604862 3.46281544,4.76825925 3.44995437,4.77623236 C3.27715325,4.85567144 3.09775781,4.89539098 2.91176803,4.89539098 C2.90199048,4.89539098 2.89216031,4.89528121 2.88227756,4.89506166 Z" id="Combined-Shape-Copy" fill="#23292F"></path>
                </g>
            </g>
        </g>
    </g>
</svg>