<?xml version="1.0" encoding="UTF-8"?>
<svg width="26px" height="26px" viewBox="0 0 26 26" version="1.1" xmlns="http://www.w3.org/2000/svg" xmlns:xlink="http://www.w3.org/1999/xlink">
    <title>qrETH</title>
    <defs>
        <path d="M10.5625,20.3125 C7.62180131,20.3125 4.98519861,19.0106562 3.19757023,16.9518469 C1.71180291,15.2406906 0.8125,13.0066288 0.8125,10.5625 C0.8125,5.1776725 5.1776725,0.8125 10.5625,0.8125 C15.9473275,0.8125 20.3125,5.1776725 20.3125,10.5625 C20.3125,15.9473275 15.9473275,20.3125 10.5625,20.3125 Z" id="path-1"></path>
        <path d="M10.5625,21.125 C7.37674309,21.125 4.5204235,19.7146692 2.58382608,17.4842925 C0.974244814,15.6305398 0,13.2103062 0,10.5625 C0,4.72893687 4.72893688,0 10.5625,0 C16.3960631,0 21.125,4.72893687 21.125,10.5625 C21.125,16.3960631 16.3960631,21.125 10.5625,21.125 Z" id="path-3"></path>
    </defs>
    <g id="Page-1" stroke="none" stroke-width="1" fill="none" fill-rule="evenodd">
        <g id="2442" transform="translate(-390.000000, -6719.000000)">
            <g id="qrETH" transform="translate(390.000000, 6719.000000)">
                <g id="ATOM">
                    <g id="DF备份-26"></g>
                    <path d="M13,26 C9.07906842,26 5.56359815,24.2642083 3.18009363,21.5191292 C1.19907054,19.2375875 0,16.2588384 0,13 C0,5.82023 5.82023,0 13,0 C20.17977,0 26,5.82023 26,13 C26,20.17977 20.17977,26 13,26 Z" id="Fill-504备份-21" fill="#016DF0"></path>
                    <g id="ETH备份-22" transform="translate(2.437500, 2.437500)">
                        <mask id="mask-2" fill="white">
                            <use xlink:href="#path-1"></use>
                        </mask>
                        <path stroke="#FFFFFF" stroke-width="1.21875" d="M10.5625,0.203125 C13.4231896,0.203125 16.0130325,1.36262545 17.8877035,3.2372965 C19.7623746,5.11196754 20.921875,7.70181039 20.921875,10.5625 C20.921875,13.4231896 19.7623746,16.0130325 17.8877035,17.8877035 C16.0130325,19.7623745 13.4231896,20.921875 10.5625,20.921875 C7.43811115,20.921875 4.63675228,19.5388047 2.73744039,17.3513696 C1.15876877,15.5332156 0.203125,13.159486 0.203125,10.5625 C0.203125,7.70181038 1.36262546,5.11196752 3.23729651,3.23729648 C5.11196755,1.36262545 7.70181041,0.203125 10.5625,0.203125 Z"></path>
                        <mask id="mask-4" fill="white">
                            <use xlink:href="#path-3"></use>
                        </mask>
                        <use id="蒙版备份" fill="#FFFFFF" xlink:href="#path-3"></use>
                    </g>
                </g>
                <g id="rDOT" transform="translate(3.000000, 3.000000)">
                    <ellipse id="Oval-5-Copy-2" fill="#00F3AB" fill-rule="nonzero" cx="9.98859749" cy="10" rx="9.98859749" ry="10"></ellipse>
                    <g id="DOT备份">
                        <path d="M10,20 C4.5,20 0,15.5000929 0,9.95020737 C0.05,4.45032085 4.5,-0.0495862982 10.05,0.000412670161 C15.55,0.0504116385 20,4.50031982 20,10.1002043 C19.95,15.5500918 15.5,20 10,20" id="路径" fill="#00F3AB"></path>
                        <g id="Group-25" transform="translate(5.000000, 2.000000)" fill="#23292F" fill-rule="nonzero">
                            <polygon id="Rectangle-14" points="4.78029001 0 9.56058005 8.68534481 4.78029001 11.8529412 0 8.78752533"></polygon>
                            <polygon id="Rectangle-14-Copy" points="4.97150161 0 4.97150161 6.64173428 4.97150161 11.8529412 0 8.78752533"></polygon>
                            <polygon id="Rectangle-18" points="4.78029001 6.88235294 9.56058005 8.88970585 4.78029001 11.8529412 0 8.98529415"></polygon>
                            <polygon id="Rectangle-18-Copy" points="4.97150161 6.88235294 4.97150161 8.88970585 4.97150161 11.8529412 0 8.98529415"></polygon>
                            <polygon id="Rectangle-28" points="0 9.55882356 4.78029001 12.5857843 9.56058005 9.55882356 4.78029001 16.8235294"></polygon>
                            <polygon id="Rectangle-28-Copy" points="0 9.55882356 4.97150161 12.5857843 4.97150161 16.8235294"></polygon>
                        </g>
                    </g>
                    <path d="M3.14709236,7.23549489 L3.14709236,4.24968339 C3.1654259,3.28231284 3.64209071,2.79863482 4.57710108,2.79863482 L5.95210947,2.79863482 L5.95210947,3.44044476 L4.87960293,3.44044476 C4.38459743,3.44044476 4.12793177,3.69158528 4.10959823,4.19387383 L4.10959823,7.23549489 L3.14709236,7.23549489 Z" id="r" fill="#FFFFFF" fill-rule="nonzero"></path>
                </g>
                <g id="Group-2-Copy-54" transform="translate(17.000000, 17.000000)" fill-rule="nonzero">
                    <ellipse id="Oval-5-Copy-2" stroke="#23292F" stroke-width="0.571428571" fill="#FFFFFF" cx="4.32839225" cy="4.34802192" rx="4.32839225" ry="4.34802192"></ellipse>
                    <path d="M5.84754692,4.89382595 C5.68350991,4.8857653 5.4993825,4.84656744 5.29516467,4.77623236 C5.29014612,4.77312115 5.28510791,4.77004041 5.28005004,4.76699011 L5.77118966,1.95217311 L6.44842111,1.98475554 L5.84754692,4.89382595 Z M5.75043521,5.36398228 L5.59371546,6.12272475 L4.92948116,6.12272475 L4.6205019,5.141335 C4.79192336,5.15209449 4.95599946,5.17423822 5.1127302,5.20776619 L5.22853037,5.5690779 L5.23520589,5.2366698 C5.25531933,5.2418717 5.27530559,5.24727071 5.29516467,5.25286684 C5.44692151,5.31166708 5.59867836,5.34870556 5.75043521,5.36398228 Z M4.43515606,4.53873479 L4.33425822,4.16905142 L4.23589477,4.54190303 C4.08350087,4.55096746 3.94107723,4.57548434 3.80862385,4.61545368 L4.17610719,3.36721806 L4.52979039,3.36721806 L4.92336854,4.6115527 C4.77330302,4.56764036 4.61056552,4.54336773 4.43515606,4.53873479 Z M4.06007904,5.14595158 L3.76779,6.12272475 L3.12655948,6.12272475 L2.97689457,5.37056886 C3.14963814,5.36275571 3.30732474,5.32352182 3.44995437,5.25286684 C3.47378266,5.24615222 3.49779406,5.23972138 3.52198855,5.23357432 L3.54062762,5.5690779 L3.64047545,5.20604777 C3.77495309,5.17766164 3.91482095,5.15762958 4.06007904,5.14595158 Z M2.88227756,4.89506166 L2.29669793,1.95217311 L2.88559484,1.95217311 L3.48892482,4.75291321 C3.47580558,4.7604862 3.46281544,4.76825925 3.44995437,4.77623236 C3.27715325,4.85567144 3.09775781,4.89539098 2.91176803,4.89539098 C2.90199048,4.89539098 2.89216031,4.89528121 2.88227756,4.89506166 Z" id="Combined-Shape-Copy" fill="#23292F"></path>
                </g>
            </g>
        </g>
    </g>
</svg>