<?xml version="1.0" encoding="UTF-8"?>
<svg width="26px" height="26px" viewBox="0 0 26 26" version="1.1" xmlns="http://www.w3.org/2000/svg" xmlns:xlink="http://www.w3.org/1999/xlink">
    <title>qtFIL</title>
    <defs>
        <path d="M10.5625,20.3125 C7.62180131,20.3125 4.98519861,19.0106562 3.19757023,16.9518469 C1.71180291,15.2406906 0.8125,13.0066288 0.8125,10.5625 C0.8125,5.1776725 5.1776725,0.8125 10.5625,0.8125 C15.9473275,0.8125 20.3125,5.1776725 20.3125,10.5625 C20.3125,15.9473275 15.9473275,20.3125 10.5625,20.3125 Z" id="path-1"></path>
        <path d="M10.5625,21.125 C7.37674309,21.125 4.5204235,19.7146692 2.58382608,17.4842925 C0.974244814,15.6305398 0,13.2103062 0,10.5625 C0,4.72893687 4.72893688,0 10.5625,0 C16.3960631,0 21.125,4.72893687 21.125,10.5625 C21.125,16.3960631 16.3960631,21.125 10.5625,21.125 Z" id="path-3"></path>
        <polygon id="path-5" points="0 0 20 0 20 20 0 20"></polygon>
    </defs>
    <g id="Page-1" stroke="none" stroke-width="1" fill="none" fill-rule="evenodd">
        <g id="2442" transform="translate(-513.000000, -6543.000000)">
            <g id="qtFIL" transform="translate(513.000000, 6543.000000)">
                <g id="ATOM">
                    <g id="DF备份-26"></g>
                    <path d="M13,26 C9.07906842,26 5.56359815,24.2642083 3.18009363,21.5191292 C1.19907054,19.2375875 0,16.2588384 0,13 C0,5.82023 5.82023,0 13,0 C20.17977,0 26,5.82023 26,13 C26,20.17977 20.17977,26 13,26 Z" id="Fill-504备份-21" fill="#016DF0"></path>
                    <g id="ETH备份-22" transform="translate(2.437500, 2.437500)">
                        <mask id="mask-2" fill="white">
                            <use xlink:href="#path-1"></use>
                        </mask>
                        <path stroke="#FFFFFF" stroke-width="1.21875" d="M10.5625,0.203125 C13.4231896,0.203125 16.0130325,1.36262545 17.8877035,3.2372965 C19.7623746,5.11196754 20.921875,7.70181039 20.921875,10.5625 C20.921875,13.4231896 19.7623746,16.0130325 17.8877035,17.8877035 C16.0130325,19.7623745 13.4231896,20.921875 10.5625,20.921875 C7.43811115,20.921875 4.63675228,19.5388047 2.73744039,17.3513696 C1.15876877,15.5332156 0.203125,13.159486 0.203125,10.5625 C0.203125,7.70181038 1.36262546,5.11196752 3.23729651,3.23729648 C5.11196755,1.36262545 7.70181041,0.203125 10.5625,0.203125 Z"></path>
                        <mask id="mask-4" fill="white">
                            <use xlink:href="#path-3"></use>
                        </mask>
                        <use id="蒙版备份" fill="#FFFFFF" xlink:href="#path-3"></use>
                    </g>
                </g>
                <g id="FIL" transform="translate(3.000000, 3.000000)">
                    <g id="Clipped">
                        <mask id="mask-6" fill="white">
                            <use xlink:href="#path-5"></use>
                        </mask>
                        <g id="a-logo_1"></g>
                        <path d="M10,20 C4.5,20 0,15.5 0,9.95 C0.05,4.45 4.5,-0.05 10.05,2.16840434e-19 C15.55,0.05 20,4.5 20,10.1 C19.95,15.55 15.5,20 10,20" id="路径" fill="#40C2CB" mask="url(#mask-6)"></path>
                    </g>
                    <path d="M10.95,8.8 L10.65,10.4 L13.5,10.8 L13.3,11.55 L10.5,11.15 C10.3,11.8 10.2,12.5 9.95,13.1 C9.7,13.8 9.45,14.5 9.15,15.15 C8.75,16 8.05,16.6 7.1,16.75 C6.55,16.85 5.95,16.8 5.5,16.45 C5.35,16.35 5.2,16.15 5.2,16 C5.2,15.8 5.3,15.55 5.45,15.45 C5.55,15.4 5.8,15.45 5.95,15.5 C6.1,15.65 6.25,15.85 6.35,16.05 C6.65,16.45 7.05,16.5 7.45,16.2 C7.9,15.8 8.15,15.25 8.3,14.7 C8.6,13.5 8.9,12.35 9.15,11.15 L9.15,10.95 L6.5,10.55 L6.6,9.8 L9.35,10.2 L9.7,8.65 L6.85,8.2 L6.95,7.4 L9.9,7.8 C10,7.5 10.05,7.25 10.15,7 C10.4,6.1 10.65,5.2 11.25,4.4 C11.85,3.6 12.55,3.1 13.6,3.15 C14.05,3.15 14.5,3.3 14.8,3.65 C14.85,3.7 14.95,3.8 14.95,3.9 C14.95,4.1 14.95,4.35 14.8,4.5 C14.6,4.65 14.35,4.6 14.15,4.4 C14,4.25 13.9,4.1 13.75,3.95 C13.45,3.55 13,3.5 12.65,3.85 C12.4,4.1 12.15,4.45 12,4.8 C11.65,5.85 11.4,6.95 11.05,8.05 L13.8,8.45 L13.6,9.2 L10.95,8.8" id="路径" fill="#FFFFFF"></path>
                </g>
                <g id="Group-2-Copy-54" transform="translate(17.000000, 17.000000)" fill-rule="nonzero">
                    <circle id="Oval-5-Copy-2" stroke="#23292F" stroke-width="0.571428571" fill="#FFFFFF" cx="4.33333333" cy="4.33333333" r="4.33333333"></circle>
                    <path d="M5.30310559,7.09813665 L5.30310559,6.39751553 L4.79627329,6.39751553 C4.7068323,6.39751553 4.64720497,6.37515528 4.60248447,6.33043478 C4.55776398,6.27826087 4.54285714,6.21118012 4.54285714,6.12173913 L4.54285714,3.94534161 L5.4,3.94534161 L5.4,3.2447205 L4.54285714,3.2447205 L4.54285714,2 L3.6931677,2.35031056 L3.6931677,3.2447205 L3,3.2447205 L3,3.94534161 L3.6931677,3.94534161 L3.6931677,6.12173913 C3.6931677,6.43478261 3.76770186,6.66583851 3.91677019,6.82981366 C4.07329193,7.00869565 4.31925466,7.09813665 4.65465839,7.09813665 L5.30310559,7.09813665 Z" id="t" fill="#24292F"></path>
                </g>
            </g>
        </g>
    </g>
</svg>