<?xml version="1.0" encoding="UTF-8"?>
<svg width="26px" height="26px" viewBox="0 0 26 26" version="1.1" xmlns="http://www.w3.org/2000/svg" xmlns:xlink="http://www.w3.org/1999/xlink">
    <title>qUSX</title>
    <defs>
        <path d="M10.5625,20.3125 C7.62180131,20.3125 4.98519861,19.0106562 3.19757023,16.9518469 C1.71180291,15.2406906 0.8125,13.0066288 0.8125,10.5625 C0.8125,5.1776725 5.1776725,0.8125 10.5625,0.8125 C15.9473275,0.8125 20.3125,5.1776725 20.3125,10.5625 C20.3125,15.9473275 15.9473275,20.3125 10.5625,20.3125 Z" id="path-1"></path>
        <path d="M10.5625,21.125 C7.37674309,21.125 4.5204235,19.7146692 2.58382608,17.4842925 C0.974244814,15.6305398 0,13.2103062 0,10.5625 C0,4.72893687 4.72893688,0 10.5625,0 C16.3960631,0 21.125,4.72893687 21.125,10.5625 C21.125,16.3960631 16.3960631,21.125 10.5625,21.125 Z" id="path-3"></path>
    </defs>
    <g id="Page-1" stroke="none" stroke-width="1" fill="none" fill-rule="evenodd">
        <g id="2442" transform="translate(-513.000000, -6681.000000)">
            <g id="qUSX" transform="translate(513.000000, 6681.000000)">
                <g id="ATOM">
                    <g id="DF备份-26"></g>
                    <path d="M13,26 C9.07906842,26 5.56359815,24.2642083 3.18009363,21.5191292 C1.19907054,19.2375875 0,16.2588384 0,13 C0,5.82023 5.82023,0 13,0 C20.17977,0 26,5.82023 26,13 C26,20.17977 20.17977,26 13,26 Z" id="Fill-504备份-21" fill="#016DF0"></path>
                    <g id="ETH备份-22" transform="translate(2.437500, 2.437500)">
                        <mask id="mask-2" fill="white">
                            <use xlink:href="#path-1"></use>
                        </mask>
                        <path stroke="#FFFFFF" stroke-width="1.21875" d="M10.5625,0.203125 C13.4231896,0.203125 16.0130325,1.36262545 17.8877035,3.2372965 C19.7623746,5.11196754 20.921875,7.70181039 20.921875,10.5625 C20.921875,13.4231896 19.7623746,16.0130325 17.8877035,17.8877035 C16.0130325,19.7623745 13.4231896,20.921875 10.5625,20.921875 C7.43811115,20.921875 4.63675228,19.5388047 2.73744039,17.3513696 C1.15876877,15.5332156 0.203125,13.159486 0.203125,10.5625 C0.203125,7.70181038 1.36262546,5.11196752 3.23729651,3.23729648 C5.11196755,1.36262545 7.70181041,0.203125 10.5625,0.203125 Z"></path>
                        <mask id="mask-4" fill="white">
                            <use xlink:href="#path-3"></use>
                        </mask>
                        <use id="蒙版备份" fill="#FFFFFF" xlink:href="#path-3"></use>
                    </g>
                </g>
                <g id="USX" transform="translate(3.000000, 3.000000)">
                    <circle id="椭圆形" fill="#FFAA1D" cx="10" cy="10" r="10"></circle>
                    <circle id="椭圆形备份" fill="#242A47" cx="10" cy="10" r="8.46153846"></circle>
                    <circle id="椭圆形备份-2" fill="#FFFFFF" cx="10" cy="10" r="6.92307692"></circle>
                    <path d="M10.5823955,14.8430665 L9.61903475,14.8430665 L9.61903475,13.7483386 C8.9534399,13.6695182 8.20901889,13.3717521 7.69230769,12.89883 L8.32287101,11.9354693 C8.85709867,12.3558448 9.37380987,12.6010641 9.93431571,12.6010641 C10.6174256,12.6010641 10.932708,12.2945407 10.932708,11.7427979 C10.932708,10.4291247 7.96380378,10.5429754 7.96380378,8.50239905 C7.96380378,7.44270265 8.59436709,6.70704894 9.61903614,6.51437484 L9.61903614,5.38461538 L10.5823969,5.38461538 L10.5823969,6.49685838 C11.2830233,6.59319445 11.7822194,6.94350791 12.2025963,7.38139853 L11.4844549,8.20463455 C11.0815944,7.8368056 10.7312819,7.62661783 10.2320858,7.62661783 C9.65406907,7.62661783 9.3387881,7.89810973 9.3387881,8.43233739 C9.3387881,9.64091743 12.3076923,9.45700226 12.3076923,11.6377034 C12.2989345,12.7061573 11.703403,13.5031193 10.5823941,13.7133029 L10.5823955,14.8430665 Z" id="路径" fill="#242A47" fill-rule="nonzero"></path>
                </g>
            </g>
        </g>
    </g>
</svg>