<?xml version="1.0" encoding="UTF-8"?>
<svg width="26px" height="26px" viewBox="0 0 26 26" version="1.1" xmlns="http://www.w3.org/2000/svg" xmlns:xlink="http://www.w3.org/1999/xlink">
    <title>qXTZ</title>
    <defs>
        <path d="M10.5625,20.3125 C7.62180131,20.3125 4.98519861,19.0106562 3.19757023,16.9518469 C1.71180291,15.2406906 0.8125,13.0066288 0.8125,10.5625 C0.8125,5.1776725 5.1776725,0.8125 10.5625,0.8125 C15.9473275,0.8125 20.3125,5.1776725 20.3125,10.5625 C20.3125,15.9473275 15.9473275,20.3125 10.5625,20.3125 Z" id="path-1"></path>
        <path d="M10.5625,21.125 C7.37674309,21.125 4.5204235,19.7146692 2.58382608,17.4842925 C0.974244814,15.6305398 0,13.2103062 0,10.5625 C0,4.72893687 4.72893688,0 10.5625,0 C16.3960631,0 21.125,4.72893687 21.125,10.5625 C21.125,16.3960631 16.3960631,21.125 10.5625,21.125 Z" id="path-3"></path>
    </defs>
    <g id="Page-1" stroke="none" stroke-width="1" fill="none" fill-rule="evenodd">
        <g id="2442" transform="translate(-513.000000, -6597.000000)">
            <g id="qXTZ" transform="translate(513.000000, 6597.000000)">
                <g id="ATOM">
                    <g id="DF备份-26"></g>
                    <path d="M13,26 C9.07906842,26 5.56359815,24.2642083 3.18009363,21.5191292 C1.19907054,19.2375875 0,16.2588384 0,13 C0,5.82023 5.82023,0 13,0 C20.17977,0 26,5.82023 26,13 C26,20.17977 20.17977,26 13,26 Z" id="Fill-504备份-21" fill="#016DF0"></path>
                    <g id="ETH备份-22" transform="translate(2.437500, 2.437500)">
                        <mask id="mask-2" fill="white">
                            <use xlink:href="#path-1"></use>
                        </mask>
                        <path stroke="#FFFFFF" stroke-width="1.21875" d="M10.5625,0.203125 C13.4231896,0.203125 16.0130325,1.36262545 17.8877035,3.2372965 C19.7623746,5.11196754 20.921875,7.70181039 20.921875,10.5625 C20.921875,13.4231896 19.7623746,16.0130325 17.8877035,17.8877035 C16.0130325,19.7623745 13.4231896,20.921875 10.5625,20.921875 C7.43811115,20.921875 4.63675228,19.5388047 2.73744039,17.3513696 C1.15876877,15.5332156 0.203125,13.159486 0.203125,10.5625 C0.203125,7.70181038 1.36262546,5.11196752 3.23729651,3.23729648 C5.11196755,1.36262545 7.70181041,0.203125 10.5625,0.203125 Z"></path>
                        <mask id="mask-4" fill="white">
                            <use xlink:href="#path-3"></use>
                        </mask>
                        <use id="蒙版备份" fill="#FFFFFF" xlink:href="#path-3"></use>
                    </g>
                </g>
                <g id="XTZ备份" transform="translate(3.000000, 3.000000)">
                    <circle id="椭圆形" fill="#0F61FF" cx="10" cy="10" r="10"></circle>
                    <path d="M13.9974264,12.6944664 C13.8814486,10.6131324 11.2996817,9.66707145 11.0525985,9.56990843 C11.0425135,9.56479459 11.0425135,9.55456691 11.047556,9.54433922 L13.7100031,6.8340025 L13.7100031,6.54251345 C13.7100031,6.49648887 13.669663,6.45557813 13.6242804,6.45557813 L8.71791476,6.45557813 L8.71791476,4.33333333 L6.90765243,4.71687155 L6.90765243,4.99301906 L7.0085027,4.99301906 C7.0085027,4.99301906 7.45224388,4.99301906 7.45224388,5.44303724 L7.45224388,6.45046428 L6.05042513,6.45046428 C6.02521257,6.45046428 6,6.4760335 6,6.50160271 L6,7.14083307 L7.4572864,7.14083307 L7.4572864,10.6131324 C7.4572864,11.7023809 8.14811074,12.4592297 9.35831398,12.3569528 C9.61548216,12.3364974 9.8524803,12.2342206 10.0541808,12.1012607 C10.1449461,12.0398945 10.2004137,11.9427315 10.2004137,11.830227 L10.2004137,11.4875995 C9.80709768,11.7535193 9.47429179,11.7381778 9.47429179,11.7381778 C8.70782974,11.7381778 8.72295728,10.7512061 8.72295728,10.7512061 L8.72295728,7.14083307 L12.2527167,7.14083307 L9.71128992,9.73866525 C9.70624741,10.0812927 9.70120489,10.3472126 9.70120489,10.3523264 C9.70120489,10.3625541 9.70624741,10.3676679 9.71633243,10.3676679 C12.0459737,10.7665477 12.6762878,12.2955867 12.6762878,12.740491 C12.6762878,12.740491 12.9284135,14.9036466 10.7954303,15.051948 C10.7954303,15.051948 9.39865408,15.1133141 9.15157092,14.5456775 C9.1414859,14.5252222 9.15157092,14.5047668 9.17174098,14.4945391 C9.4036966,14.3871484 9.56001452,14.1774809 9.56001452,13.8962195 C9.56001452,13.4768844 9.30788884,13.1342569 8.77842493,13.1342569 C8.34981128,13.1342569 7.99683534,13.4768844 7.99683534,13.8962195 C7.99683534,13.8962195 7.7951348,15.7167476 10.7903878,15.6656091 C14.2092119,15.604243 13.9974264,12.6944664 13.9974264,12.6944664 L13.9974264,12.6944664 Z" id="路径" stroke="#FFFFFF" stroke-width="0.5" fill="#FFFFFF" fill-rule="nonzero"></path>
                </g>
            </g>
        </g>
    </g>
</svg>