<?xml version="1.0" encoding="UTF-8"?>
<svg width="27px" height="27px" viewBox="0 0 27 27" version="1.1" xmlns="http://www.w3.org/2000/svg" xmlns:xlink="http://www.w3.org/1999/xlink">
    <title>rATOM</title>
    <g id="Page-1" stroke="none" stroke-width="1" fill="none" fill-rule="evenodd">
        <g id="2442" transform="translate(-535.000000, -5995.000000)">
            <g id="rATOM" transform="translate(535.000000, 5995.000000)">
                <g id="Group-9-Copy-9">
                    <ellipse id="Oval-5" fill="#00F3AB" fill-rule="nonzero" cx="12.9049778" cy="13" rx="12.9049778" ry="13"></ellipse>
                    <ellipse id="Oval-6" stroke="#23292F" stroke-width="0.5" cx="12.9049778" cy="13" rx="7.74298666" ry="7.8"></ellipse>
                    <path d="M12.8135406,24.0897495 C13.6005226,23.7364373 14.1674352,22.5233255 14.4803755,20.4384423 C14.5433337,20.0189995 14.6089141,19.6276642 14.7074207,19.0703714 C14.721092,18.9930268 14.7948837,18.577714 14.8156907,18.4596862 C15.0864685,16.923699 15.2121452,15.9528347 15.2766015,14.614849 C15.3586254,12.9121898 15.3034381,10.8669556 15.0827253,8.19342505 C14.6952035,3.49931091 13.9249861,1.11325057 12.8890291,1.04166076 C11.8298656,1.73738543 11.1601364,3.33935819 10.9003367,5.85695582 C10.6337474,8.44034737 10.5304691,9.77936397 10.5029959,11.4363648 C10.4689411,13.49033 10.5879986,15.6747299 10.900124,18.3969253 C11.3218953,22.0753936 11.9948029,23.9775461 12.8135406,24.0897495 Z" id="Rectangle" stroke="#23292F" stroke-width="0.5"></path>
                    <path d="M12.8136164,24.0917836 C13.6004619,23.7384854 14.1671998,22.5252515 14.4799311,20.4401058 C14.5428473,20.0206102 14.6083875,19.6292263 14.7068362,19.0718644 C14.7204994,18.9945102 14.7942479,18.5791461 14.8150427,18.4611037 C15.0856609,16.9249263 15.2112431,15.9539383 15.275584,14.6157733 C15.3574611,12.9128859 15.3021188,10.8673655 15.0812236,8.19344892 C14.6933817,3.49865703 13.9230805,1.11220657 12.8872606,1.04052448 C11.8282985,1.73626078 11.158789,3.33840103 10.8992254,5.85632497 C10.6328784,8.44005134 10.5297208,9.77924426 10.5023833,11.4364712 C10.4684966,13.4907168 10.5877115,15.6754272 10.9000105,18.3980226 C11.3220163,22.0770315 11.9949826,23.9794997 12.8136164,24.0917836 Z" id="Rectangle-Copy" stroke="#23292F" stroke-width="0.5" transform="translate(12.904158, 12.566154) rotate(-60.000000) translate(-12.904158, -12.566154) "></path>
                    <path d="M12.8134492,24.0918516 C13.600351,23.7384281 14.1672819,22.525104 14.480345,20.4399086 C14.5433279,20.020403 14.6089304,19.6290086 14.7074678,19.0716311 C14.7211433,18.9942747 14.7949579,18.5788988 14.8157714,18.4608531 C15.0866341,16.9246327 15.2123708,15.9536246 15.2769246,14.6154494 C15.3590727,12.912549 15.3040558,10.8670373 15.0835861,8.19315587 C14.6964913,3.49842563 13.9265698,1.11209772 12.8907612,1.04058046 C11.8316884,1.73648528 11.161924,3.33873209 10.9019597,5.85669736 C10.6352016,8.44046615 10.531831,9.7796755 10.5042297,11.4369069 C10.4700162,13.4911579 10.5888834,15.6758493 10.9007493,18.3983951 C11.3221697,22.0773368 11.9948333,23.9796979 12.8134492,24.0918516 Z" id="Rectangle-Copy-2" stroke="#23292F" stroke-width="0.5" transform="translate(12.905823, 12.566216) rotate(60.000000) translate(-12.905823, -12.566216) "></path>
                    <ellipse id="Oval-7" fill="#23292F" fill-rule="nonzero" cx="13.3351437" cy="13.4333333" rx="1.29049778" ry="1.3"></ellipse>
                    <ellipse id="Oval-7-Copy" fill="#23292F" fill-rule="nonzero" cx="5.1619911" cy="10.4" rx="1" ry="1"></ellipse>
                    <ellipse id="Oval-7-Copy-2" fill="#23292F" fill-rule="nonzero" cx="11.184314" cy="19.9333333" rx="1" ry="1"></ellipse>
                    <ellipse id="Oval-7-Copy-3" fill="#23292F" fill-rule="nonzero" cx="18.0669689" cy="6.93333333" rx="1" ry="1"></ellipse>
                    <path d="M4.33412961,9.25561728 L4.33412961,5.21410124 C4.35952502,3.90469387 5.01979598,3.25 6.31496228,3.25 L8.21960909,3.25 L8.21960909,4.11873709 L6.73398458,4.11873709 C6.0483083,4.11873709 5.69277779,4.45867429 5.66738237,5.13855888 L5.66738237,9.25561728 L4.33412961,9.25561728 Z" id="r" fill="#FFFFFF" fill-rule="nonzero"></path>
                </g>
                <g id="Group-2-Copy-54" transform="translate(17.336518, 17.333333)" fill-rule="nonzero">
                    <ellipse id="Oval-5-Copy-2" stroke="#23292F" stroke-width="0.5" fill="#FFFFFF" cx="4.33174078" cy="4.33333333" rx="4.33174078" ry="4.33333333"></ellipse>
                    <path d="M5.85872019,4.85043887 C5.69480854,4.84238639 5.51082185,4.80322821 5.30676009,4.73296436 C5.30174538,4.7298563 5.29671102,4.72677867 5.29165701,4.72373147 L5.78242129,1.9117647 L6.45913515,1.94431415 L5.85872019,4.85043887 Z M5.76168269,5.32011913 L5.60508272,6.0780933 L4.94135606,6.0780933 L4.63261294,5.0976973 C4.80390339,5.1084459 4.96785409,5.13056721 5.12446505,5.16406121 L5.24017672,5.52500708 L5.24684713,5.19293556 C5.2669452,5.19813219 5.28691619,5.20352574 5.30676009,5.2091162 C5.45840096,5.26785691 5.61004183,5.30485788 5.76168269,5.32011913 Z M4.44740875,4.49570728 L4.34658801,4.12639824 L4.24829974,4.4988723 C4.0960223,4.50792755 3.95370751,4.53241961 3.82135536,4.57234848 L4.18855785,3.32537681 L4.54197076,3.32537681 L4.93524811,4.56845145 C4.78529727,4.52458358 4.62268415,4.50033552 4.44740875,4.49570728 Z M4.07261837,5.1023092 L3.78055272,6.0780933 L3.13981227,6.0780933 L2.99026173,5.32669904 C3.16287329,5.3188938 3.32043937,5.27969965 3.46296,5.2091162 C3.48677007,5.20240838 3.51076312,5.19598406 3.53493912,5.18984322 L3.55356395,5.52500708 L3.65333547,5.16234454 C3.78771034,5.13398716 3.9274713,5.11397538 4.07261837,5.1023092 Z M2.89571704,4.85167334 L2.31058493,1.9117647 L2.89903177,1.9117647 L3.50190067,4.70966882 C3.48879146,4.71723414 3.47581124,4.72499932 3.46296,4.73296436 C3.29029095,4.812323 3.11103261,4.85200232 2.92518496,4.85200232 C2.91541488,4.85200232 2.90559224,4.85189266 2.89571704,4.85167334 Z" id="Combined-Shape-Copy" fill="#23292F"></path>
                </g>
            </g>
        </g>
    </g>
</svg>