<?xml version="1.0" encoding="UTF-8"?>
<svg width="27px" height="27px" viewBox="0 0 27 27" version="1.1" xmlns="http://www.w3.org/2000/svg" xmlns:xlink="http://www.w3.org/1999/xlink">
    <title>rDOT</title>
    <g id="Page-1" stroke="none" stroke-width="1" fill="none" fill-rule="evenodd">
        <g id="2442" transform="translate(-451.000000, -5995.000000)" fill-rule="nonzero">
            <g id="rDOT" transform="translate(451.000000, 5995.000000)">
                <ellipse id="Oval-5-Copy-2" fill="#00F3AB" cx="12.9851767" cy="13" rx="12.9851767" ry="13"></ellipse>
                <path d="M4.09122007,9.40614335 L4.09122007,5.52458841 C4.11505367,4.26700669 4.73471792,3.63822526 5.95023141,3.63822526 L7.73774231,3.63822526 L7.73774231,4.47257819 L6.3434838,4.47257819 C5.69997666,4.47257819 5.3663113,4.79906086 5.3424777,5.45203598 L5.3424777,9.40614335 L4.09122007,9.40614335 Z" id="r" fill="#FFFFFF"></path>
                <g id="Polkadot_symbol_color-Copy-6" transform="translate(7.851725, 6.040273)">
                    <path d="M4.73322331,0 C2.12869832,0 0,2.122648 0,4.7476979 C0,5.27521988 0.0876522835,5.79018182 0.250435096,6.29258372 C0.36313089,6.631705 0.738783533,6.82010571 1.08939266,6.70706528 C1.42748005,6.59402486 1.61530637,6.21722344 1.50261057,5.86554211 C1.36487127,5.47618064 1.3022625,5.06169908 1.31478425,4.64721752 C1.36487127,2.87625084 2.79235132,1.41928535 4.55791874,1.33136502 C6.52383425,1.23088464 8.15166238,2.80089056 8.15166238,4.7476979 C8.15166238,6.56890476 6.72418233,8.0635504 4.93357139,8.16403078 C4.93357139,8.16403078 4.26991838,8.20171091 3.94435276,8.2519511 C3.78156995,8.2770712 3.6563524,8.30219129 3.56870011,8.31475134 C3.53113485,8.32731139 3.49356958,8.28963125 3.50609134,8.2519511 L3.61878714,7.69930902 L4.23235312,4.86073832 C4.30748365,4.509057 4.08209206,4.15737567 3.73148293,4.08201539 C3.3808738,4.0066551 3.03026466,4.23273595 2.95513413,4.58441728 C2.95513413,4.58441728 1.47756707,11.4924433 1.46504531,11.5678036 C1.38991478,11.919485 1.61530637,12.2711662 1.9659155,12.3465266 C2.31652464,12.4218868 2.66713377,12.195806 2.7422643,11.8441247 C2.75478606,11.7687643 2.95513413,10.8518809 2.95513413,10.8518809 C3.10539519,10.1485183 3.68139591,9.63355631 4.35757067,9.54563595 C4.50783173,9.52051587 5.09635421,9.48283575 5.09635421,9.48283575 C7.53809639,9.29443499 9.46644666,7.24714732 9.46644666,4.7476979 C9.46644666,2.122648 7.33774831,0 4.73322331,0 Z" id="Shape" fill="#23292F"></path>
                    <path d="M5.07131069,10.9272412 C4.64557103,10.8393208 4.21983137,11.1030818 4.13217908,11.5426835 C4.0445268,11.9697251 4.30748365,12.3967667 4.74574507,12.4846871 C5.17148473,12.5726073 5.5972244,12.3088464 5.68487667,11.8692447 C5.77252896,11.4296431 5.50957211,11.0151616 5.07131069,10.9272412 Z" id="Shape" fill="#E6007A"></path>
                </g>
                <g id="Group-2-Copy-54" transform="translate(17.343216, 17.215017)">
                    <ellipse id="Oval-5-Copy-2" stroke="#252525" stroke-width="0.5" fill="#FFFFFF" cx="4.32839225" cy="4.34802192" rx="4.32839225" ry="4.34802192"></ellipse>
                    <path d="M5.84754692,4.89382595 C5.68350991,4.8857653 5.4993825,4.84656744 5.29516467,4.77623236 C5.29014612,4.77312115 5.28510791,4.77004041 5.28005004,4.76699011 L5.77118966,1.95217311 L6.44842111,1.98475554 L5.84754692,4.89382595 Z M5.75043521,5.36398228 L5.59371546,6.12272475 L4.92948116,6.12272475 L4.6205019,5.141335 C4.79192336,5.15209449 4.95599946,5.17423822 5.1127302,5.20776619 L5.22853037,5.5690779 L5.23520589,5.2366698 C5.25531933,5.2418717 5.27530559,5.24727071 5.29516467,5.25286684 C5.44692151,5.31166708 5.59867836,5.34870556 5.75043521,5.36398228 Z M4.43515606,4.53873479 L4.33425822,4.16905142 L4.23589477,4.54190303 C4.08350087,4.55096746 3.94107723,4.57548434 3.80862385,4.61545368 L4.17610719,3.36721806 L4.52979039,3.36721806 L4.92336854,4.6115527 C4.77330302,4.56764036 4.61056552,4.54336773 4.43515606,4.53873479 Z M4.06007904,5.14595158 L3.76779,6.12272475 L3.12655948,6.12272475 L2.97689457,5.37056886 C3.14963814,5.36275571 3.30732474,5.32352182 3.44995437,5.25286684 C3.47378266,5.24615222 3.49779406,5.23972138 3.52198855,5.23357432 L3.54062762,5.5690779 L3.64047545,5.20604777 C3.77495309,5.17766164 3.91482095,5.15762958 4.06007904,5.14595158 Z M2.88227756,4.89506166 L2.29669793,1.95217311 L2.88559484,1.95217311 L3.48892482,4.75291321 C3.47580558,4.7604862 3.46281544,4.76825925 3.44995437,4.77623236 C3.27715325,4.85567144 3.09775781,4.89539098 2.91176803,4.89539098 C2.90199048,4.89539098 2.89216031,4.89528121 2.88227756,4.89506166 Z" id="Combined-Shape-Copy" fill="#23292F"></path>
                </g>
            </g>
        </g>
    </g>
</svg>