<?xml version="1.0" encoding="UTF-8"?>
<svg width="27px" height="27px" viewBox="0 0 27 27" version="1.1" xmlns="http://www.w3.org/2000/svg" xmlns:xlink="http://www.w3.org/1999/xlink">
    <title>rETH</title>
    <g id="Page-1" stroke="none" stroke-width="1" fill="none" fill-rule="evenodd">
        <g id="2442" transform="translate(-702.000000, -5995.000000)" fill-rule="nonzero">
            <g id="rETH" transform="translate(702.000000, 5995.000000)">
                <ellipse id="Oval-5-Copy-2" fill="#00F3AB" cx="12.9049778" cy="13" rx="12.9049778" ry="13"></ellipse>
                <g id="Group-25" transform="translate(8.030887, 4.588235)" fill="#23292F">
                    <polygon id="Rectangle-14" points="4.78029001 0 9.56058005 8.68534481 4.78029001 11.8529412 0 8.78752533"></polygon>
                    <polygon id="Rectangle-14-Copy" points="4.97150161 0 4.97150161 6.64173428 4.97150161 11.8529412 0 8.78752533"></polygon>
                    <polygon id="Rectangle-18" points="4.78029001 6.88235294 9.56058005 8.88970585 4.78029001 11.8529412 0 8.98529415"></polygon>
                    <polygon id="Rectangle-18-Copy" points="4.97150161 6.88235294 4.97150161 8.88970585 4.97150161 11.8529412 0 8.98529415"></polygon>
                    <polygon id="Rectangle-28" points="0 9.55882356 4.78029001 12.5857843 9.56058005 9.55882356 4.78029001 16.8235294"></polygon>
                    <polygon id="Rectangle-28-Copy" points="0 9.55882356 4.97150161 12.5857843 4.97150161 16.8235294"></polygon>
                </g>
                <path d="M4.33412961,9.30566407 L4.33412961,5.23046875 C4.35952502,3.91014965 5.01979598,3.25 6.31496228,3.25 L8.21960909,3.25 L8.21960909,4.12597656 L6.73398458,4.12597656 C6.0483083,4.12597656 5.69277779,4.46874657 5.66738237,5.15429687 L5.66738237,9.30566407 L4.33412961,9.30566407 Z" id="r" fill="#FFFFFF"></path>
                <g id="Group-2-Copy-54" transform="translate(17.336518, 17.333333)">
                    <ellipse id="Oval-5-Copy-2" stroke="#23292F" stroke-width="0.5" fill="#FFFFFF" cx="4.33174078" cy="4.33333333" rx="4.33174078" ry="4.33333333"></ellipse>
                    <path d="M5.85872019,4.85043887 C5.69480854,4.84238639 5.51082185,4.80322821 5.30676009,4.73296436 C5.30174538,4.7298563 5.29671102,4.72677867 5.29165701,4.72373147 L5.78242129,1.9117647 L6.45913515,1.94431415 L5.85872019,4.85043887 Z M5.76168269,5.32011913 L5.60508272,6.0780933 L4.94135606,6.0780933 L4.63261294,5.0976973 C4.80390339,5.1084459 4.96785409,5.13056721 5.12446505,5.16406121 L5.24017672,5.52500708 L5.24684713,5.19293556 C5.2669452,5.19813219 5.28691619,5.20352574 5.30676009,5.2091162 C5.45840096,5.26785691 5.61004183,5.30485788 5.76168269,5.32011913 Z M4.44740875,4.49570728 L4.34658801,4.12639824 L4.24829974,4.4988723 C4.0960223,4.50792755 3.95370751,4.53241961 3.82135536,4.57234848 L4.18855785,3.32537681 L4.54197076,3.32537681 L4.93524811,4.56845145 C4.78529727,4.52458358 4.62268415,4.50033552 4.44740875,4.49570728 Z M4.07261837,5.1023092 L3.78055272,6.0780933 L3.13981227,6.0780933 L2.99026173,5.32669904 C3.16287329,5.3188938 3.32043937,5.27969965 3.46296,5.2091162 C3.48677007,5.20240838 3.51076312,5.19598406 3.53493912,5.18984322 L3.55356395,5.52500708 L3.65333547,5.16234454 C3.78771034,5.13398716 3.9274713,5.11397538 4.07261837,5.1023092 Z M2.89571704,4.85167334 L2.31058493,1.9117647 L2.89903177,1.9117647 L3.50190067,4.70966882 C3.48879146,4.71723414 3.47581124,4.72499932 3.46296,4.73296436 C3.29029095,4.812323 3.11103261,4.85200232 2.92518496,4.85200232 C2.91541488,4.85200232 2.90559224,4.85189266 2.89571704,4.85167334 Z" id="Combined-Shape-Copy" fill="#23292F"></path>
                </g>
            </g>
        </g>
    </g>
</svg>