<?xml version="1.0" encoding="UTF-8"?>
<svg width="27px" height="27px" viewBox="0 0 27 27" version="1.1" xmlns="http://www.w3.org/2000/svg" xmlns:xlink="http://www.w3.org/1999/xlink">
    <title>rFIS</title>
    <g id="Page-1" stroke="none" stroke-width="1" fill="none" fill-rule="evenodd">
        <g id="2442" transform="translate(-785.000000, -5995.000000)" fill-rule="nonzero">
            <g id="rFIS" transform="translate(785.000000, 5995.000000)">
                <ellipse id="Oval-5-Copy-2" fill="#00F3AB" cx="12.7748582" cy="12.7868853" rx="12.7748582" ry="12.7868853"></ellipse>
                <path d="M17.278116,14.3127704 C16.7947196,14.289009 16.2521193,14.1734603 15.650315,13.9661243 C15.635526,13.9569531 15.620679,13.9478715 15.6057742,13.9388798 L17.0531008,5.64127291 L19.0488166,5.73732044 L17.278116,14.3127704 Z M16.99194,15.6987122 L16.5301067,17.9353573 L14.5726917,17.9353573 L13.6621688,15.0423855 C14.1673262,15.0741027 14.6508378,15.1393786 15.1127036,15.2382135 L15.4539521,16.3032996 L15.4736241,15.3234164 C15.5328958,15.3387507 15.5917928,15.3546661 15.650315,15.3711626 C16.0975233,15.5444958 16.5447317,15.653679 16.99194,15.6987122 Z M13.1159779,13.2660215 L12.8186446,12.1762571 L12.5287799,13.2753609 C12.0796943,13.3020814 11.6599897,13.3743529 11.2696663,13.4921758 L12.3525934,9.81258729 L13.3948533,9.81258729 L14.5546786,13.4806764 C14.1124544,13.3512303 13.6328875,13.2796786 13.1159779,13.2660215 Z M12.010673,15.0559944 L11.149334,17.9353573 L9.25970838,17.9353573 L8.81866475,15.7181283 C9.32771831,15.6950965 9.79240089,15.5794416 10.2127125,15.3711626 C10.2829314,15.351369 10.35369,15.332412 10.4249881,15.3142915 L10.4799152,16.3032996 L10.7741541,15.2331478 C11.1704427,15.1494703 11.5826158,15.0904192 12.010673,15.0559944 Z M8.53984039,14.3164135 L6.81421083,5.64127291 L8.54961591,5.64127291 L10.3275534,13.8973834 C10.2888927,13.9197073 10.2506124,13.942621 10.2127125,13.9661243 C9.70348929,14.2002974 9.17483355,14.3173839 8.62674503,14.3173839 C8.59793181,14.3173839 8.56896358,14.3170603 8.53984034,14.3164131 L8.53984039,14.3164135 Z" id="Combined-Shape-Copy" fill="#23292F"></path>
                <path d="M4.29042904,9.1531122 L4.29042904,5.14472336 C4.3155684,3.84604884 4.96918191,3.19672131 6.25128919,3.19672131 L8.13673164,3.19672131 L8.13673164,4.0583376 L6.66608653,4.0583376 C5.98732385,4.0583376 5.63537812,4.39548843 5.61023876,5.06980021 L5.61023876,9.1531122 L4.29042904,9.1531122 Z" id="r" fill="#FFFFFF"></path>
                <g id="Group-2-Copy-54" transform="translate(17.419142, 17.475410)">
                    <ellipse id="Oval-5-Copy-2" stroke="#23292F" stroke-width="0.5" fill="#FFFFFF" cx="4.29042904" cy="4.26229509" rx="4.29042904" ry="4.26229509"></ellipse>
                    <path d="M5.81172234,4.79580839 C5.64755817,4.78783057 5.46328801,4.74903549 5.25891186,4.67942315 C5.25388941,4.67634391 5.24884729,4.67329482 5.24378551,4.67027587 L5.7353059,1.88438309 L6.41306236,1.91663072 L5.81172234,4.79580839 Z M5.71453535,5.26113353 L5.5576941,6.01207938 L4.89294485,6.01207938 L4.58372606,5.04077411 C4.75528041,5.05142304 4.91948371,5.07333922 5.07633596,5.10652266 L5.1922259,5.46412165 L5.19890659,5.13512927 C5.21903562,5.14027772 5.23903738,5.14562125 5.25891186,5.15115987 C5.41078635,5.2093559 5.56266084,5.24601379 5.71453535,5.26113353 Z M4.39823653,4.44436604 L4.29726046,4.07848142 L4.19882076,4.44750172 C4.04630871,4.456473 3.90377465,4.48073796 3.77121859,4.52029659 L4.13898683,3.28488747 L4.49294422,3.28488747 L4.88682749,4.51643569 C4.73664563,4.47297459 4.57378197,4.44895137 4.39823653,4.44436604 Z M4.02286872,5.04534324 L3.73035309,6.01207938 L3.08862545,6.01207938 L2.93884451,5.26765243 C3.11172201,5.25991956 3.26953085,5.22108883 3.41227105,5.15115987 C3.43611782,5.14451425 3.46014783,5.1381495 3.48436108,5.1320656 L3.5030146,5.46412165 L3.60293983,5.1048219 C3.73752173,5.07672747 3.87749802,5.05690125 4.02286872,5.04534324 Z M2.84415415,4.7970314 L2.25812055,1.88438309 L2.847474,1.88438309 L3.45127172,4.65634362 C3.43814231,4.66383879 3.42514209,4.67153197 3.41227105,4.67942315 C3.23933598,4.75804594 3.05980145,4.79735733 2.87366748,4.79735733 C2.86388235,4.79735733 2.85404457,4.79724868 2.84415415,4.7970314 Z" id="Combined-Shape-Copy" fill="#23292F"></path>
                </g>
            </g>
        </g>
    </g>
</svg>