<?xml version="1.0" encoding="UTF-8"?>
<svg width="27px" height="27px" viewBox="0 0 27 27" version="1.1" xmlns="http://www.w3.org/2000/svg" xmlns:xlink="http://www.w3.org/1999/xlink">
    <title>rKSM</title>
    <g id="Page-1" stroke="none" stroke-width="1" fill="none" fill-rule="evenodd">
        <g id="2442" transform="translate(-618.000000, -5995.000000)" fill-rule="nonzero">
            <g id="rKSM" transform="translate(618.000000, 5995.000000)">
                <g id="Group-2-Copy-58" transform="translate(0.000000, 0.000000)">
                    <circle id="Oval-5-Copy-2" fill="#00F3AB" cx="13" cy="13" r="13"></circle>
                    <path d="M3.70907426,18.5589412 C3.70907426,18.5589412 11.4840004,15.4546694 12.9973386,16.2564026 L12.0844929,16.5277208 C12.1643972,16.5277208 13.6438366,16.6254931 13.6438366,16.6254931 C13.7140214,17.249964 14.0579312,17.8097449 14.5808956,18.1507417 C15.471949,18.7447087 15.4888984,19.0673574 15.4888984,19.0673574 C15.4888984,19.0673574 15.0264223,19.2580135 15.0264223,19.5 C15.4564621,19.3757353 15.9011801,19.3107794 16.3484746,19.3068996 C16.7519424,19.3214365 17.1520801,19.3862957 17.5397744,19.5 C17.5397744,19.5 17.4937688,19.2555691 16.8714842,19.0673574 C16.2491995,18.8791457 15.648707,18.2142937 15.3460394,17.8452031 C14.9767898,17.3652641 14.8848187,16.7246441 15.1039053,16.1586302 C15.3194046,15.6013279 16.0724417,15.2909007 17.6003078,14.4891675 C19.4138923,13.5432201 19.8279416,12.8343706 20.0821825,12.2892898 C20.3364232,11.744209 20.7189951,10.6516031 20.9296518,10.1382983 C21.1047977,9.65851952 21.4061559,9.23599638 21.8013346,8.91614403 C22.0701035,8.70837786 23.295302,8.24151489 23.295302,8.24151489 C23.295302,8.24151489 22.3606644,7.43733738 22.0555754,7.19535084 C21.6742523,6.83077956 21.1920051,6.59205796 20.6729897,6.51094445 C20.0240702,6.42539365 19.3654655,6.86048056 18.9199387,7.15135328 C18.474412,7.44222599 17.6124146,8.29284537 17.2637415,8.53727622 C16.9150684,8.78170705 16.0215935,9.0261379 14.6002663,9.90364466 C13.1789391,10.7811514 7.53721446,14.4158382 7.53721446,14.4158382 L8.99001905,14.4305041 L2.46934764,17.8452031 L3.12068838,17.8452031 L2.18120805,18.5784957 C2.70154466,18.698749 3.24770731,18.614868 3.70907426,18.3438421 L3.70907426,18.5589412 Z" id="Path" fill="#333B43"></path>
                    <path d="M4.36241611,9.27333333 L4.36241611,5.2490566 C4.3880775,3.94523457 5.05526388,3.29333333 6.36399527,3.29333333 L8.2885906,3.29333333 L8.2885906,4.15836478 L6.78740624,4.15836478 C6.09454845,4.15836478 5.73529425,4.49685196 5.70963285,5.17383648 L5.70963285,9.27333333 L4.36241611,9.27333333 Z" id="r" fill="#FFFFFF"></path>
                </g>
                <g id="Group-2-Copy-54" transform="translate(17.304251, 17.333333)">
                    <circle id="Oval-5-Copy-2" stroke="#24292F" stroke-width="0.5" fill="#FFFFFF" cx="4.33333333" cy="4.33333333" r="4.33333333"></circle>
                    <path d="M5.89792791,4.84087703 C5.73356389,4.83283677 5.5490694,4.79373808 5.34444445,4.72358095 C5.33941588,4.72047761 5.33436763,4.71740466 5.32929968,4.71436209 L5.82141844,1.90666667 L6.5,1.93916667 L5.89792791,4.84087703 Z M5.8006226,5.30984385 L5.64359043,6.06666667 L4.97803192,6.06666667 L4.66843668,5.08775986 C4.84019988,5.09849214 5.00460308,5.12057985 5.16164628,5.15402298 L5.27767731,5.51442057 L5.28436613,5.18285347 C5.30451967,5.18804221 5.32454577,5.19342756 5.34444445,5.19900952 C5.49650383,5.257661 5.64856321,5.29460578 5.8006226,5.30984385 Z M4.48272134,4.48668426 L4.38162234,4.11793619 L4.28306279,4.48984448 C4.13036508,4.49888598 3.98765751,4.52334083 3.85494008,4.56320905 L4.22315603,3.31813151 L4.57754432,3.31813151 L4.9719071,4.55931794 C4.82154241,4.5155167 4.65848049,4.49130548 4.48272134,4.48668426 Z M4.10689656,5.09236477 L3.81402482,6.06666667 L3.17151596,6.06666667 L3.02155267,5.31641376 C3.19464062,5.30862037 3.35264159,5.26948575 3.49555555,5.19900952 C3.51943135,5.1923119 3.54349062,5.18589733 3.56773334,5.17976582 L3.58640957,5.51442057 L3.68645646,5.15230891 C3.82120219,5.12399461 3.96134889,5.10401323 4.10689656,5.09236477 Z M2.92674704,4.84210962 L2.34,1.90666667 L2.93007092,1.90666667 L3.5346037,4.70032079 C3.52145831,4.70787463 3.50844226,4.71562802 3.49555555,4.72358095 C3.32240995,4.80281905 3.14265687,4.84243809 2.9562963,4.84243809 C2.94649925,4.84243809 2.93664949,4.8423286 2.92674704,4.84210962 Z" id="Combined-Shape-Copy" fill="#23292F"></path>
                </g>
            </g>
        </g>
    </g>
</svg>