<?xml version="1.0" encoding="UTF-8"?>
<svg width="26px" height="26px" viewBox="0 0 26 26" version="1.1" xmlns="http://www.w3.org/2000/svg" xmlns:xlink="http://www.w3.org/1999/xlink">
    <title>tFIL</title>
    <defs>
        <polygon id="path-1" points="0 0 26 0 26 26 0 26"></polygon>
    </defs>
    <g id="Page-1" stroke="none" stroke-width="1" fill="none" fill-rule="evenodd">
        <g id="2442" transform="translate(-368.000000, -6205.000000)">
            <g id="tFIL" transform="translate(368.000000, 6205.000000)">
                <g>
                    <g id="Clipped">
                        <mask id="mask-2" fill="white">
                            <use xlink:href="#path-1"></use>
                        </mask>
                        <g id="a-logo_1"></g>
                        <path d="M13,26 C5.85,26 0,20.15 0,12.935 C0.065,5.785 5.85,-0.065 13.065,3.25260652e-19 C20.215,0.065 26,5.85 26,13.13 C25.935,20.215 20.15,26 13,26" id="路径" fill="#40C2CB" mask="url(#mask-2)"></path>
                    </g>
                    <path d="M14.235,11.44 L13.845,13.52 L17.55,14.04 L17.29,15.015 L13.65,14.495 C13.39,15.34 13.26,16.25 12.935,17.03 C12.61,17.94 12.285,18.85 11.895,19.695 C11.375,20.8 10.465,21.58 9.23,21.775 C8.515,21.905 7.735,21.84 7.15,21.385 C6.955,21.255 6.76,20.995 6.76,20.8 C6.76,20.54 6.89,20.215 7.085,20.085 C7.215,20.02 7.54,20.085 7.735,20.15 C7.93,20.345 8.125,20.605 8.255,20.865 C8.645,21.385 9.165,21.45 9.685,21.06 C10.27,20.54 10.595,19.825 10.79,19.11 C11.18,17.55 11.57,16.055 11.895,14.495 L11.895,14.235 L8.45,13.715 L8.58,12.74 L12.155,13.26 L12.61,11.245 L8.905,10.66 L9.035,9.62 L12.87,10.14 C13,9.75 13.065,9.425 13.195,9.1 C13.52,7.93 13.845,6.76 14.625,5.72 C15.405,4.68 16.315,4.03 17.68,4.095 C18.265,4.095 18.85,4.29 19.24,4.745 C19.305,4.81 19.435,4.94 19.435,5.07 C19.435,5.33 19.435,5.655 19.24,5.85 C18.98,6.045 18.655,5.98 18.395,5.72 C18.2,5.525 18.07,5.33 17.875,5.135 C17.485,4.615 16.9,4.55 16.445,5.005 C16.12,5.33 15.795,5.785 15.6,6.24 C15.145,7.605 14.82,9.035 14.365,10.465 L17.94,10.985 L17.68,11.96 L14.235,11.44" id="路径" fill="#FFFFFF"></path>
                </g>
                <g id="Group-2-Copy-54" transform="translate(17.000000, 17.000000)" fill-rule="nonzero">
                    <circle id="Oval-5-Copy-2" stroke="#24292F" stroke-width="0.5" fill="#FFFFFF" cx="4.33333333" cy="4.33333333" r="4.33333333"></circle>
                    <path d="M5.30310559,7.09813665 L5.30310559,6.39751553 L4.79627329,6.39751553 C4.7068323,6.39751553 4.64720497,6.37515528 4.60248447,6.33043478 C4.55776398,6.27826087 4.54285714,6.21118012 4.54285714,6.12173913 L4.54285714,3.94534161 L5.4,3.94534161 L5.4,3.2447205 L4.54285714,3.2447205 L4.54285714,2 L3.6931677,2.35031056 L3.6931677,3.2447205 L3,3.2447205 L3,3.94534161 L3.6931677,3.94534161 L3.6931677,6.12173913 C3.6931677,6.43478261 3.76770186,6.66583851 3.91677019,6.82981366 C4.07329193,7.00869565 4.31925466,7.09813665 4.65465839,7.09813665 L5.30310559,7.09813665 Z" id="t" fill="#24292F"></path>
                </g>
            </g>
        </g>
    </g>
</svg>