<?xml version="1.0" encoding="UTF-8"?>
<svg width="26px" height="26px" viewBox="0 0 26 26" version="1.1" xmlns="http://www.w3.org/2000/svg" xmlns:xlink="http://www.w3.org/1999/xlink">
    <title>XTZ</title>
    <g id="Page-1" stroke="none" stroke-width="1" fill="none" fill-rule="evenodd">
        <g id="2442" transform="translate(-314.000000, -6205.000000)">
            <g id="XTZ" transform="translate(314.000000, 6205.000000)">
                <circle id="椭圆形" fill="#0F61FF" cx="13" cy="13" r="13"></circle>
                <path d="M18.1966543,16.5028064 C18.0458831,13.7970721 14.6895862,12.5671929 14.3683781,12.440881 C14.3552675,12.434233 14.3552675,12.420937 14.3618228,12.407641 L17.823004,8.88420325 L17.823004,8.50526749 C17.823004,8.44543553 17.7705619,8.39225156 17.7115645,8.39225156 L11.3332892,8.39225156 L11.3332892,5.63333333 L8.97994815,6.13193301 L8.97994815,6.49092478 L9.1110535,6.49092478 C9.1110535,6.49092478 9.68791705,6.49092478 9.68791705,7.07594841 L9.68791705,8.38560357 L7.86555268,8.38560357 C7.83277634,8.38560357 7.8,8.41884355 7.8,8.45208352 L7.8,9.28308299 L9.69447231,9.28308299 L9.69447231,13.7970721 C9.69447231,15.2130952 10.592544,16.1969986 12.1658082,16.0640386 C12.5001268,16.0374467 12.8082244,15.9044867 13.0704351,15.7316389 C13.1884299,15.6518629 13.2605378,15.525551 13.2605378,15.3792951 L13.2605378,14.9338794 C12.749227,15.2795751 12.3165793,15.2596312 12.3165793,15.2596312 C11.3201787,15.2596312 11.3398445,13.976568 11.3398445,13.976568 L11.3398445,9.28308299 L15.9285317,9.28308299 L12.6246769,12.6602648 C12.6181216,13.1056805 12.6115664,13.4513763 12.6115664,13.4580243 C12.6115664,13.4713203 12.6181216,13.4779683 12.6312322,13.4779683 C15.6597658,13.996512 16.4791742,15.9842627 16.4791742,16.5626383 C16.4791742,16.5626383 16.8069376,19.3747405 14.0340594,19.5675324 C14.0340594,19.5675324 12.2182503,19.6473083 11.8970422,18.9093808 C11.8839317,18.8827888 11.8970422,18.8561968 11.9232633,18.8429009 C12.2248056,18.7032929 12.4280189,18.4307251 12.4280189,18.0650854 C12.4280189,17.5199497 12.1002555,17.074534 11.4119524,17.074534 C10.8547547,17.074534 10.3958859,17.5199497 10.3958859,18.0650854 C10.3958859,18.0650854 10.1336752,20.4317718 14.0275041,20.3652919 C18.4719755,20.2855159 18.1966543,16.5028064 18.1966543,16.5028064 L18.1966543,16.5028064 Z" id="路径" stroke="#FFFFFF" stroke-width="0.5" fill="#FFFFFF" fill-rule="nonzero"></path>
            </g>
        </g>
    </g>
</svg>